<?xml version="1.0" encoding="utf-8"?>
<!-- Generator: Adobe Illustrator 22.0.1, SVG Export Plug-In . SVG Version: 6.00 Build 0)  -->
<svg version="1.1"
	 id="Layer_1" inkscape:output_extension="org.inkscape.output.svg.inkscape" inkscape:version="0.46" sodipodi:docname="Enodis.svg" sodipodi:version="0.32" xmlns:cc="http://creativecommons.org/ns#" xmlns:dc="http://purl.org/dc/elements/1.1/" xmlns:inkscape="http://www.inkscape.org/namespaces/inkscape" xmlns:rdf="http://www.w3.org/1999/02/22-rdf-syntax-ns#" xmlns:sodipodi="http://sodipodi.sourceforge.net/DTD/sodipodi-0.dtd" xmlns:svg="http://www.w3.org/2000/svg"
	 xmlns="http://www.w3.org/2000/svg" xmlns:xlink="http://www.w3.org/1999/xlink" x="0px" y="0px" viewBox="0 0 331.9 268"
	 style="enable-background:new 0 0 331.9 268;" xml:space="preserve">
<style type="text/css">
	.st0{fill:#B2BBC0;}
	.st1{fill:#004A8E;}
	.st2{fill:#ECEDED;}
	.st3{fill:#FFFFFF;}
	.st4{fill:#E94D11;}
	.st5{enable-background:new    ;}
	.st6{fill:none;}
</style>
<defs>
	
	
		<inkscape:perspective  id="perspective26" inkscape:persp3d-origin="306 : 264 : 1" inkscape:vp_x="0 : 396 : 1" inkscape:vp_y="0 : 1000 : 0" inkscape:vp_z="612 : 396 : 1" sodipodi:type="inkscape:persp3d">
		</inkscape:perspective>
	
		<inkscape:perspective  id="perspective2414" inkscape:persp3d-origin="372.04724 : 350.78739 : 1" inkscape:vp_x="0 : 526.18109 : 1" inkscape:vp_y="0 : 1000 : 0" inkscape:vp_z="744.09448 : 526.18109 : 1" sodipodi:type="inkscape:persp3d">
		</inkscape:perspective>
</defs>
<sodipodi:namedview  bordercolor="#666666" borderopacity="1.0" gridtolerance="10.0" guidetolerance="10.0" id="base" inkscape:current-layer="Layer_1" inkscape:cx="236.40961" inkscape:cy="1.3463471" inkscape:pageopacity="0.0" inkscape:pageshadow="2" inkscape:window-height="667" inkscape:window-width="640" inkscape:window-x="319" inkscape:window-y="164" inkscape:zoom="149.33333" objecttolerance="10.0" pagecolor="#ffffff" showgrid="false">
	</sodipodi:namedview>
<g id="图层_1_2_">
	<ellipse class="st0" cx="165.9" cy="87.2" rx="86.7" ry="86.7"/>
	<ellipse class="st1" cx="165.8" cy="87.9" rx="76.7" ry="76.7"/>
	<path class="st0" d="M27.5,167.2c-0.2-0.5-0.5-1.2-0.8-1.9c-1.4-4.5,0.9-14.5,1.3-19.6c0.1-1.1,0.7-2.8-0.4-3.5
		c-0.2-0.1-0.5-0.6-1.1-0.8c-0.9-0.3-2.2-0.2-3.1-0.1c-1.5,0.2-1.9,0.1-2.8,0.7c-0.9,0.6-2,0.9-2.9,0.8c-0.8-0.1-2-0.5-3,0
		s-1.5,1.1-1.9,2.7c0,0-2.1-0.3-3.9,1.9c-1.1,1.3-0.7,2.7-0.1,4c0.5,0.9,1.2,2.3,2,3.1c0.7,0.7,1.8,1.7,2.9,2.9
		c0.9,1-0.3-0.4,0.7,0.5c0.2,0.2,0.4,0.4,0.6,0.5c0.2,0.2,0.8,0.7,0.8,0.9c0,0.1-0.1,0.2-0.1,0.2c-0.1,0.1-0.3,0.1-0.7-0.2l-3-2.8
		c0,0-1.8-2-4.6-2.6c-0.6-0.1-1.3-0.2-1.9-0.3c-0.3,0-0.6,0-1,0.1c-0.1,0.1-0.3,0.1-0.4,0.3c-0.2,0.2-0.4,0.6-0.5,1
		c0,0.1,0,0.3-0.1,0.4c-0.1,0.5-0.2,0.5-0.6,0.9c-0.2,0.2-0.5,0.5-0.6,0.8c-0.5,0.9-0.1,2.3,0.1,3.3c0.2,0.9,0.5,1.6,0.5,1.6
		s-1.7,0.8-1.4,2.1c0.3,1.4,0.7,2.2,0.7,2.2s-0.3,0.1-0.5,0.5c-0.3,0.4-0.2,1.3-0.1,1.8c0.2,0.6,0.4,0.9,0.4,0.9s-1.1,0.7-0.8,1.7
		c0.2,0.5,0.4,1,0.5,1.4c0.1,0.2,0.1,0.4,0.2,0.6c0.5,2,2.7,2.2,5.4,1.3c0.2-0.1,0.5-0.2,0.8-0.3c4.6-1.6,11.9-5.2,16.4-4.3
		c1,0.2,1.5,0.3,2.3,1c0.9,0.8,6.8,5.1,7.5,5.6c1.1,0.8,3-0.1,2.6-1.6c-0.1-0.4-0.3-0.7-0.7-1l-7.4-5
		C28.2,168.5,28,168.2,27.5,167.2z"/>
	<path class="st0" d="M304.1,167.2c0.2-0.5,0.5-1.2,0.8-1.9c1.4-4.5-0.9-14.5-1.3-19.6c-0.1-1.1-0.7-2.8,0.4-3.5
		c0.2-0.1,0.5-0.6,1.1-0.8c0.9-0.3,2.2-0.2,3.1-0.1c1.5,0.2,1.9,0.1,2.8,0.7c0.9,0.6,2,0.9,2.9,0.8c0.8-0.1,2-0.5,3,0
		s1.5,1.1,1.9,2.7c0,0,2.1-0.3,3.9,1.9c1.1,1.3,0.7,2.7,0.1,4c-0.5,0.9-1.2,2.3-2,3.1c-0.7,0.7-1.8,1.7-2.9,2.9
		c-0.9,1,0.3-0.4-0.7,0.5c-0.2,0.2-0.4,0.4-0.6,0.5c-0.2,0.2-0.8,0.7-0.8,0.9c0,0.1,0.1,0.2,0.1,0.2c0.1,0.1,0.3,0.1,0.7-0.2l3-2.8
		c0,0,1.8-2,4.6-2.6c0.6-0.1,1.3-0.2,1.9-0.3c0.3,0,0.6,0,1,0.1c0.1,0.1,0.3,0.1,0.4,0.3c0.2,0.2,0.4,0.6,0.5,1c0,0.1,0,0.3,0.1,0.4
		c0.1,0.5,0.2,0.5,0.6,0.9c0.2,0.2,0.5,0.5,0.6,0.8c0.5,0.9,0.1,2.3-0.1,3.3c-0.2,0.9-0.5,1.6-0.5,1.6s1.7,0.8,1.4,2.1
		c-0.3,1.4-0.7,2.2-0.7,2.2s0.3,0.1,0.5,0.5c0.3,0.4,0.2,1.3,0.1,1.8c-0.2,0.6-0.4,0.9-0.4,0.9s1.1,0.7,0.8,1.7
		c-0.2,0.5-0.4,1-0.5,1.4c-0.1,0.2-0.1,0.4-0.2,0.6c-0.5,2-2.7,2.2-5.4,1.3c-0.2-0.1-0.5-0.2-0.8-0.3c-4.6-1.6-11.9-5.2-16.4-4.3
		c-1,0.2-1.5,0.3-2.3,1c-0.9,0.8-6.8,5.1-7.5,5.6c-1.1,0.8-3-0.1-2.6-1.6c0.1-0.4,0.3-0.7,0.7-1l7.4-5
		C303.4,168.5,303.6,168.2,304.1,167.2z"/>
	<path class="st2" d="M180.3,145c0.1-0.3,0.2-0.6,0.3-0.9c1.1-0.5,2-0.7,2.4-0.7c0.8,0,1.4,0.2,1.8,0.6c0.3,0.4,0.4,0.8,0.3,1.3
		c-0.1,0.4-0.3,0.8-0.5,1.1c-0.3,0.4-0.6,0.7-1.1,0.9c-0.4,0.2-0.9,0.3-1.4,0.3c-0.6,0-1.1-0.2-1.4-0.6
		C180.2,146.5,180.1,145.8,180.3,145z M189.4,135.7c-1.2,0-2.4,0.3-3.6,0.8c-1.1,0.5-2.3,1.3-3.4,2.4c-1.1,1.1-2,2.2-2.7,3.3
		s-1.1,2.2-1.3,3.2c-0.2,0.8-0.2,1.5,0,2c0.2,0.4,0.4,0.8,0.8,1c0.4,0.2,0.9,0.3,1.4,0.4c0.9,0,1.9-0.2,2.9-0.7
		c1-0.4,1.8-1.1,2.6-1.9c0.5-0.6,0.9-1.3,1.1-2.2c0.2-0.7,0-1.3-0.4-1.9c-0.3-0.5-0.9-0.7-1.6-0.7c-1.1,0-2.5,0.5-4.2,1.4
		c0.1-0.3,0.3-0.6,0.5-1c0.6-1,1.2-1.9,2.1-2.8c0.7-0.7,1.5-1.3,2.4-1.7c0.6-0.3,1.2-0.4,1.9-0.4c0.4,0,0.8,0.2,1.1,0.7l1.8-1.8
		C190.4,135.8,189.9,135.7,189.4,135.7z M178.2,134.5c-1.2,0.8-2.2,1.4-3.1,1.6s-2.1,0.2-3.6,0l-3.7,6l0.6,0.2
		c0.5-0.2,1-0.3,1.5-0.3c0.6,0,1,0.2,1.3,0.5c0.3,0.4,0.4,1,0.3,1.7c-0.1,0.6-0.4,1.1-0.8,1.6s-0.9,0.9-1.5,1.2
		c-0.5,0.3-1,0.4-1.5,0.4c-0.6,0-1.3-0.3-1.9-0.8l-1.4,1.8c0.6,0.2,1.2,0.3,1.9,0.3c1,0,2.1-0.3,3.3-1c1.2-0.7,2.2-1.5,3-2.4
		c0.6-0.7,0.9-1.4,1.1-2.2c0.1-0.6,0.1-1.1,0-1.6c-0.1-0.4-0.4-0.7-0.7-0.9c-0.4-0.3-1-0.5-1.7-0.5c-0.5,0-1,0.2-1.5,0.6l1.8-2.8
		c1.2,0.1,2.1,0.1,2.8,0c0.7-0.2,1.9-1,3.6-2.4L178.2,134.5z M158.9,141.9c-0.6,0-1.1-0.2-1.4-0.5c-0.3-0.4-0.4-0.9-0.2-1.7
		c0.1-0.5,0.3-0.9,0.6-1.3c0.3-0.3,0.6-0.6,1-0.8c0.4-0.3,0.9-0.4,1.5-0.4c0.4,0,0.8,0.1,1.1,0.3c0.3,0.2,0.5,0.5,0.6,0.9
		s0.1,0.9,0,1.5c-0.1,0.3-0.2,0.6-0.3,0.9c-0.4,0.2-0.7,0.4-1.1,0.6C159.9,141.7,159.3,141.9,158.9,141.9z M162.2,135.5
		c-1.1,0-2.3,0.3-3.5,1c-1.2,0.7-2,1.4-2.5,2.1s-0.8,1.3-0.9,2c-0.2,0.8-0.1,1.5,0.2,2c0.4,0.6,1.1,0.8,2,0.8c0.8,0,1.8-0.3,2.9-1
		c0.4-0.2,0.7-0.5,1.1-0.7c-0.2,0.4-0.4,0.9-0.6,1.3c-0.5,0.9-1.1,1.7-1.8,2.5c-0.6,0.6-1.2,1.1-1.9,1.4c-0.6,0.3-1.1,0.4-1.7,0.4
		c-0.7,0-1.3-0.3-1.9-0.8l-1.8,1.8c0.7,0.3,1.5,0.4,2.4,0.4c1,0,2.1-0.3,3.2-0.8c1.1-0.6,2.2-1.3,3.1-2.2c0.9-0.9,1.6-1.8,2.1-2.8
		c0.7-1.3,1.3-2.7,1.6-4.1c0.2-0.9,0.2-1.6,0-2.3c-0.1-0.4-0.3-0.7-0.6-0.9C163.2,135.7,162.7,135.6,162.2,135.5z M149.6,135.6
		l-4.9,2.5l0.4,0.4l1.8-0.7l-4.1,9.1c-0.2,0.4-0.4,0.6-0.6,0.7l-1.6,0.2l-1.1,0.8h6.7l0.9-0.8c-0.6-0.1-1.3-0.2-2-0.3
		c-0.3,0-0.4-0.1-0.4-0.3c0-0.2,0.2-0.9,0.7-2L149.6,135.6z"/>
	<path class="st3" d="M118.4,68.9h5.9v12.3c0,4.5-3.5,6.1-9.8,6.1c-6.5,0-10-1.4-10-5.9V68.9h5.9v11.4c0,2.7,1.7,3.2,3.8,3.2
		c2.2,0.1,4.5-0.4,4.5-3.2V68.9H118.4z"/>
	<path class="st3" d="M179.2,74.4h-4.6c-2.6-4.8-9.4-0.6-4.8,0.9c0.6,0.1,1.6,0.3,2.6,0.4c4.9,1.2,7.4,3,7.4,5.8
		c-0.1,4-3.2,6.4-9.1,6.2c-6.8,0-8.2-2.9-8.8-6.8h5.5c0.1,0.7,1.3,1.9,1.7,2.3c0.4,0.3,1.2,0.4,1.9,0.4c1.9,0,2.7-0.4,2.7-1.3
		c0-0.7-1.3-1.4-3.8-1.9c-5.1-1.2-7.5-3.2-7.5-6.1c0.1-3.9,2.9-5.8,8.4-5.9C175.7,68.6,178.4,70.7,179.2,74.4z"/>
	<polygon class="st3" points="182.1,73.5 182.1,68.9 201.4,68.9 201.4,73.5 194.4,73.5 194.4,88.4 189.1,88.4 189.1,73.5 	"/>
	<path class="st3" d="M212.9,68.9c4.6,0,8.5,2.9,10,6.9h-5.6c-1-1.3-2.6-2-4.3-2c-3,0-5.5,2.5-5.5,5.3c0,2.9,2.5,5.3,5.5,5.3
		c1.9,0,3.5-0.9,4.5-2.3h5.5c-1.3,4.2-5.3,7.2-10,7.2c-5.8,0-10.6-4.6-10.6-10.3S207.1,68.9,212.9,68.9z"/>
	<path class="st3" d="M128.6,87.6c-3.5,7.1-5.5,13.9-6.2,19.7c-1.3,12.1,3.9,18.7,16.5,17.6c11.9-1,28.6-8.8,44.5-23.7
		c3.3-3.2,6.5-6.4,9.4-9.5h-8c-14.7,15.5-32.5,28.5-44.5,30.4c-18.8,2.9-17.6-10.3-12.9-21.3c1.3-3.2,2.7-6.2,4.5-9.3
		C130.6,90.3,129.4,89,128.6,87.6z M153.7,63.9c17.3-16.3,33.3-26.3,44.8-28c12.1-1.7,14.3,6.2,10.8,18.7c-0.9,2.7-2,5.8-3.6,8.8
		h5.3c1.3-3.2,2.2-6.4,2.7-9.4c2.3-13.2-2.6-21.5-16.6-21.1c-13.2,0.4-29.8,9.5-47.7,26.3c-0.6,0.6-1.2,1.2-1.7,1.7
		C150,61.5,152,62.6,153.7,63.9z"/>
	<path class="st3" d="M173.2,111.3c8.5,6.1,17.3,10.3,24,11.6c15.3,3.8,14.6-11.4,10.7-22.1c-1.2-3.2-2.6-6.1-4.2-9.1h5.1
		c2.2,5.6,3.5,11,4,15.6c1.3,12.1-5.1,19.7-17.3,18.7c-7.7-0.6-17.2-4.3-27.2-11.3C169.9,113.5,171.7,112.4,173.2,111.3z"/>
	<path class="st3" d="M181.9,63.4c-4.2-4.3-8.4-8.1-12.4-11.6c1.6-1.3,3.2-2.5,4.8-3.6c4.3,3.3,8.7,7.2,13.2,11.4
		c1.3,1.3,2.5,2.5,3.8,3.8H181.9z"/>
	<path class="st3" d="M153.7,65.9L153.7,65.9L153.7,65.9z"/>
	<path class="st3" d="M151,91.9c4.8,4.6,9.8,9.1,14.6,13.3c0.3,0.3,0.7,0.6,1,0.9c-1.6,1.3-3.3,2.5-4.9,3.6
		c-3.2-2.6-6.2-5.3-9.4-8.5c-2.5-2.5-4.8-4.9-6.9-7.4l0,0c-0.9,0.1-1.7,0.1-2.6,0.1c-8.7,0-15.6-7.1-15.6-15.6c0-2.7,0.7-5.5,2-7.7
		c-2.7-5.5-4.9-10.6-5.9-16.6c-2.3-13.2,3.2-22.3,16.8-21.8c8,0.3,17.2,4.2,27.3,11.1c-1.6,1.2-3.2,2.2-4.8,3.5
		c-9.3-6.8-17.8-10.7-24.6-11c-8.1-0.3-13.6,8.7-11.3,21.4c0.6,3.6,2.2,7.2,4.2,11l0,0c1,1.9,2.2,3.6,3.3,5.1
		c-2.5,4.6-1.4,10.8,3,14.2c3.8,2.7,9,1.9,13.2-2.6l-3-2.3c-4.9,4.6-10.7,2.3-10.6-3.9h15.3c0-0.1,0-0.1,0-0.3
		c0.3-5.9-2.6-10.7-8.5-10.7c-3,0-5.8,1.2-7.8,3.2c-0.4,0.4-0.7,0.9-1.2,1.3l-2.9-5.1c2.7-2.7,6.7-4.5,10.8-4.5
		c8.7,0,15.6,7.1,15.6,15.6C158.6,84.1,155.6,89.2,151,91.9z"/>
	<path class="st3" d="M143.9,70.8c2.6,0,4.8,2.3,4.8,5c0,0,0,0,0,0.2h-11.4c0,0,0,0,0-0.2C138,72.9,140.9,70.8,143.9,70.8z"/>
	<path class="st4" d="M254.9,65.3L254.9,65.3c2,10.6,16.5,18.2,14.6,36.1c3.4-27.1,11.9-31.4,7.1-45.8c5.2,7.1,7.5,20,5.5,29.1
		c-3,13.9-9.3,14.6-15.3,32C267.6,95.1,252.6,88.3,254.9,65.3z"/>
	<path class="st4" d="M176.4,182.2c17.1-1.7,21.4-11.5,42.2-19.9c-10.2,8.2-12,22.1-32,22.7c22.3,0.1,37.6,8.6,53.8-2.1
		c-9.7,10.8-21,14-31.7,13.6c-11.9-0.4-20.6-6-30.5-10.7c-2.5-1.2-4.7-1-7.3-0.3c-0.6,0.2-1.2,0.4-1.8,0.6c-11.4,4-23,16.7-23,16.7
		s-3.8-3.9-4-4.2c-0.1-0.2,10-9.3,22.3-13.8l0.8-0.3c1.4-0.5,2.9-0.9,4.3-1.3c0.2,0,0.4-0.1,0.6-0.1c1-0.2,1.9-0.4,2.9-0.5
		C174.2,182.4,175.3,182.3,176.4,182.2z"/>
	<path class="st4" d="M264.3,59.1L264.3,59.1c-0.8-1.5-3.2-4.4-5.4-7.3c-2.5-3.3-4.8-6-7.4-11.8c-4.8-11.2-7.5-15.5-10.4-19.8
		c0-0.1,2.1,1.4,4.9,3.2c4.1,2.8,9.8,6.8,12.8,11.6c4.6,7.2,5,14.7,5.1,19.7C263.9,56.3,264.6,58.9,264.3,59.1z"/>
	<path class="st4" d="M269.5,86.2L269.5,86.2c-3.2-15.9-25-24.6-20-45.1c0.4,12.3,15.5,15.9,19.1,33.6c-3.1-19.3,1.9-28.9-7-38.1
		c10.3,5.7,13.2,13.5,13.2,21.8C274.8,68,270.4,76.7,269.5,86.2z"/>
	<path class="st4" d="M202.3,183.6L202.3,183.6c7-4,11.9-8.6,18.2-20.5c6.5-12.3,19.1-21.9,20.1-22.6c-9.8,13-6.5,28.6-26.1,38.9
		c4.2-1.3,13.1-6.8,26.7-9.4c8.7-1.7,18.3-6.2,23.5-13.7c-1.9,7.1-9.4,16.9-26.1,24.4C223.5,187.5,218.6,181.6,202.3,183.6z"/>
	<path class="st4" d="M254,145.7L254,145.7c3.8-13,2.5-17.3,1.8-24.5c-0.8-8-1.9-16.6,1.6-31.5c-0.7,11.5,12.7,24.6,3.2,44.9
		c2-2.8,5.4-12.8,11.1-20.5c5.2-7,10.7-14.5,11.4-24.2c1.7,4.7,1.4,19.8-6.2,33.2C271.6,132.5,262.9,136.3,254,145.7z"/>
	<path class="st4" d="M229.9,169.7L229.9,169.7c8.5-8.8,11.6-23.8,14.6-33.2c2.4-7.6,4-12.4,9.1-19c-3.5,9.4-1.3,16.9-2.4,25
		c-0.8,5.3-2.9,10.8-9.1,17.4c3.6-2,8.7-8.5,15.7-13.2c9.2-6.2,18.5-11.3,21.2-21.6c0.7,1.1-2.2,19.3-14.3,28.3
		C254.5,161,238.9,166.1,229.9,169.7z"/>
	<path class="st4" d="M76.7,65.3L76.7,65.3c-2,10.6-16.5,18.2-14.6,36.1C58.7,74.3,50.2,70,55,55.6c-5.2,7.1-7.5,20-5.5,29.1
		c3,13.9,9.3,14.6,15.3,32C64.1,95.1,79.1,88.3,76.7,65.3z"/>
	<path class="st4" d="M155.2,182.2c-17.1-1.7-21.4-11.5-42.2-19.9c10.2,8.2,12,22.1,32,22.7c-22.3,0.1-37.6,8.6-53.8-2.1
		c9.7,10.8,21,14,31.7,13.6c11.9-0.4,20.6-6,30.5-10.7c2.5-1.2,4.7-1,7.3-0.3c0.6,0.2,1.2,0.4,1.8,0.6c11.4,4,23,16.7,23,16.7
		s3.8-3.9,4-4.2c0.1-0.2-10-9.3-22.3-13.8l-0.8-0.3c-1.4-0.5-2.9-0.9-4.3-1.3c-0.2,0-0.4-0.1-0.6-0.1c-1-0.2-1.9-0.4-2.9-0.5
		C157.4,182.4,156.3,182.3,155.2,182.2z"/>
	<path class="st4" d="M67.3,59.1L67.3,59.1c0.8-1.5,3.2-4.4,5.4-7.3c2.5-3.3,4.8-6,7.4-11.8c4.8-11.2,7.5-15.5,10.4-19.8
		c0-0.1-2.1,1.4-4.9,3.2c-4.1,2.8-9.8,6.8-12.8,11.6c-4.6,7.2-5,14.7-5.1,19.7C67.7,56.3,67,58.9,67.3,59.1z"/>
	<path class="st4" d="M62.1,86.2L62.1,86.2c3.2-15.9,25-24.6,20-45.1C81.7,53.4,66.6,57,63,74.7c3.1-19.3-1.9-28.9,7-38.1
		c-10.3,5.7-13.2,13.5-13.2,21.8C56.9,68,61.2,76.7,62.1,86.2z"/>
	<path class="st4" d="M129.3,183.6L129.3,183.6c-7-4-11.9-8.6-18.2-20.5c-6.5-12.3-19.1-21.9-20.1-22.6c9.8,13,6.5,28.6,26.1,38.9
		c-4.2-1.3-13.1-6.8-26.7-9.4c-8.7-1.7-18.3-6.2-23.5-13.7c1.9,7.1,9.4,16.9,26.1,24.4C108.1,187.5,113,181.6,129.3,183.6z"/>
	<path class="st4" d="M77.6,145.7L77.6,145.7c-3.8-13-2.6-17.3-1.8-24.5c0.8-8,1.9-16.6-1.6-31.5c0.7,11.5-12.7,24.6-3.2,44.9
		c-2-2.8-5.4-12.8-11.1-20.5c-5.2-7-10.7-14.5-11.4-24.2c-1.7,4.7-1.4,19.8,6.2,33.2C60,132.5,68.7,136.3,77.6,145.7z"/>
	<path class="st4" d="M101.7,169.7L101.7,169.7c-8.5-8.8-11.6-23.8-14.6-33.2c-2.4-7.6-4-12.4-9.1-19c3.5,9.4,1.3,16.9,2.4,25
		c0.8,5.3,2.9,10.8,9.1,17.4c-3.6-2-8.7-8.5-15.7-13.2c-9.2-6.2-18.5-11.3-21.2-21.6c-0.7,1.1,2.2,19.3,14.3,28.3
		C77.1,161,92.7,166.1,101.7,169.7z"/>
	<path class="st1" d="M92.5,241.2c0,0-53.8-20.5-75.6-55.7l20.9-8.6l-0.4-23c0,0,25.9,26.7,43.4,36.5c17.5,9.8,26.1,13.9,26.1,13.9
		L92.5,241.2z"/>
	<path class="st0" d="M12.2,186.9c23.4,35.2,74.2,56.7,82.6,60.1c0.9,0.3,1.9,0.8,2.8,1.1l0.7-1.7l16.1-41.2l0.6-1.6l-1.5-0.7
		c0,0-9.5-4.5-29-15.4c-19.3-10.8-47.9-40.4-48-40.5l-3-3l0.6,28.6l-24,10.3C10.7,184.3,11.3,185.5,12.2,186.9z M88.5,234.5
		c-7.5-3-46.1-19.8-64.1-46.6l17.7-7.8L41.6,162c6.3,6.2,23.8,23.2,36.6,30.4c12.1,6.9,19.5,10.5,22.2,11.8L88.5,234.5z"/>
	<path class="st1" d="M242.3,236.6c0,0,48.2-18.4,67.7-49.9l-18.7-7.7l0.4-20.6c0,0-23.2,23.9-38.9,32.7
		c-15.7,8.8-23.4,12.4-23.4,12.4L242.3,236.6z"/>
	<path class="st0" d="M318.9,189.1c-27.3,40.9-89.4,64.7-89.5,64.8l-1.8,0.7l-0.7-1.8l-17.2-44l-0.6-1.7l1.6-0.7
		c0,0,10.1-4.8,31-16.5c20.6-11.6,51.2-43.2,51.3-43.3l3.2-3.2l-0.6,30.6l25.7,11C320.5,186.4,319.9,187.7,318.9,189.1z
		 M241.9,236.1c7.8-3.1,47.9-20.5,66.5-48.3l-18.4-8.1l0.6-18.8c-6.6,6.5-24.7,24.1-38,31.5c-12.6,7.1-20.2,10.9-23,12.3
		L241.9,236.1z"/>
	<path class="st1" d="M96.3,205.5c0,0,7.9,1.4,21,3.9c13.1,2.6,38.3,2.7,49.7,12.2c11.4-9.5,36.6-9.6,49.7-12.2
		c13.1-2.6,21-3.9,21-3.9l7.3,38.8c-13.9,7.2-32.5,6.6-50.7,9.7c-18.1,3.1-27.3,7-27.3,7s-9.2-4-27.3-7s-36.8-2.4-50.7-9.7
		L96.3,205.5z"/>
	<path class="st0" d="M116.9,211.8c-9.1-1.8-14-3-16.7-3.6L94.9,243c8.5,4.1,19.1,5.2,30.1,6.4c5.2,0.6,10.7,1.1,16,2.1
		c14.7,2.5,23.1,5.6,25.3,6.5c2.2-0.8,10.7-3.9,25.3-6.5c5.3-0.9,10.7-1.5,15.9-2.1c11-1.1,21.5-2.2,30.1-6.4l-6.4-33.8
		c-2.7,0.5-9.2,1.7-18.2,3.5c-3.3,0.7-7.2,1.1-11.5,1.6c-12.1,1.4-26.8,3.2-34.4,9.5l-0.9,0.7l-0.9-0.7c-7.6-6.3-22.3-8.1-34.4-9.5
		C126.6,213.7,120.1,212.5,116.9,211.8z M93.6,197c0,0,2.5,1.3,17.3,4.1c3.7,0.7,8.4,1.2,13.5,1.9c14.3,1.7,31.2,4.5,41.2,12
		c10.1-7.5,27-11.1,41.3-12.9c5.1-0.6,9.7-1.1,13.5-1.9c14.9-2.9,19.4-3.4,19.4-3.4l1.7-0.3l0.3,1.7l9.2,48.4l0.2,1.2l-1.1,0.6
		c-11,5.7-20.3,6.2-34.3,7.7c-6.3,0.7-12.5,1.3-18.9,2.3c-20,3.5-30.1,7.7-30.1,7.7l-0.7,0.3l-0.7-0.3c0,0-10.1-4.4-30.1-7.7
		c-6.3-1.1-12.6-1.8-18.9-2.3c-14-1.5-21.2-2.6-32.1-8.3l-1.1-0.6l0.2-1.2l8-47.5l0.3-1.7L93.6,197z"/>
	<path class="st3" d="M214.3,221.1l4.9-1.7l5.7,6.9l0.3-9l4.6-1.6l-1.6,13.7l2.5,7.1l-4.3,1.5l-2.5-7.3L214.3,221.1z M198.9,224.5
		l13-3l0.8,3.5l-4.2,1l3.7,16l-4.5,1l-3.7-16l-4.2,1L198.9,224.5z M190.4,226.1l4.5-0.8l3.5,19.7l-4.5,0.8L190.4,226.1z
		 M173.1,227.5l4.7-0.4c0.2,0,0.5,0,0.7-0.1c0.3,0,0.4,0,0.4-0.1c2.5-0.2,4.4,0,5.6,0.8c1.2,0.8,1.9,2.1,2.1,3.9
		c0.1,1.2-0.1,2.3-0.7,3.1c-0.6,0.8-1.4,1.5-2.6,1.9c0.6,0.1,1.1,0.3,1.5,0.7s0.8,1.1,1.3,2.2l2.8,6.5l-4.7,0.4l-2.1-5.5
		c-0.4-1-0.7-1.6-1.1-1.9s-0.9-0.4-1.5-0.4l-0.9,0.1l0.7,8.1l-4.5,0.4L173.1,227.5z M177.8,230.4l0.4,5.1l1-0.1
		c1.1-0.1,1.9-0.4,2.4-0.8c0.5-0.4,0.7-1.1,0.6-2c-0.1-1-0.4-1.6-0.9-2s-1.3-0.5-2.5-0.4L177.8,230.4z M154.5,227.1l4.6,0.2
		l-0.4,12.8c-0.1,1.6,0.1,2.7,0.5,3.3s1.1,0.9,2,1c1,0,1.7-0.2,2.1-0.8c0.4-0.6,0.7-1.7,0.7-3.2l0.4-12.8l4.4,0.2l-0.4,12.2
		c-0.1,2.7-0.8,4.7-2,6c-1.2,1.3-3.1,1.9-5.5,1.8c-2.4-0.1-4.2-0.8-5.3-2.1c-1.1-1.3-1.6-3.4-1.5-6.1L154.5,227.1z M150.9,227.3
		l-0.7,3.7c-0.6-0.5-1.1-0.8-1.7-1.1c-0.6-0.2-1.2-0.4-1.9-0.5c-1.7-0.2-3,0.2-4.1,1.2s-1.7,2.6-2,4.7c-0.3,2.2-0.1,3.9,0.7,5.2
		c0.8,1.3,2,2.1,3.7,2.3c0.6,0.1,1.3,0.1,1.9,0s1.3-0.3,2-0.6l-0.3,3.8c-0.7,0.2-1.5,0.3-2.3,0.3s-1.6,0-2.5-0.1
		c-2.9-0.4-5-1.6-6.5-3.7c-1.4-2.1-1.9-4.7-1.5-7.8s1.6-5.4,3.6-7.1c1.9-1.6,4.3-2.2,7.1-1.8c0.8,0.1,1.5,0.3,2.3,0.6
		C149.4,226.5,150.2,226.9,150.9,227.3z M122.8,221.5l11,2.8l-0.8,3.2l-6.6-1.6l-1.2,4.6l6.2,1.6l-0.8,3.2l-6.2-1.6l-1.2,5l6.9,1.7
		l-0.8,3.3l-11.3-2.8L122.8,221.5z M117.3,220.4l-1.5,3.3c-0.6-0.5-1.1-1-1.7-1.4s-1.1-0.7-1.7-0.9c-0.8-0.3-1.5-0.4-2.1-0.2
		c-0.6,0.2-1,0.6-1.2,1.2c-0.2,0.6-0.2,1.1,0,1.6s0.8,1.3,1.8,2.3c1.6,1.7,2.6,3,2.9,4s0.2,2.1-0.3,3.4c-0.7,1.8-1.8,3-3.3,3.6
		c-1.6,0.6-3.4,0.5-5.4-0.2c-0.7-0.3-1.4-0.6-2.2-1c-0.7-0.4-1.5-0.9-2.3-1.5l1.6-3.3c0.7,0.7,1.3,1.2,1.9,1.7
		c0.6,0.4,1.3,0.8,1.9,1c0.9,0.3,1.6,0.4,2.2,0.1c0.6-0.2,1.1-0.7,1.3-1.4c0.4-1-0.3-2.3-1.9-4.1c-0.2-0.2-0.4-0.4-0.5-0.5
		c-1.3-1.4-2.1-2.5-2.3-3.5c-0.3-0.9-0.2-2,0.3-3.2c0.6-1.8,1.7-2.9,3.2-3.5s3.3-0.5,5.4,0.2c0.6,0.2,1.3,0.5,1.9,0.9
		C116,219.5,116.6,219.9,117.3,220.4z"/>
</g>
<g class="st5">
	<path class="st3" d="M262.4,196.2l1.2-2.7c1.1,0.1,2.2,0.3,3.2,0.6L266,196l2.2-1.6l1.8,2.5l-5,3.6c1.2,1.6,2.3,2.8,3.4,3.8
		c-0.2-1.4-0.5-3.1-0.9-4.9l3.2-0.6c0.7,3.1,1,5.7,0.9,8c0.2,0.2,0.4,0.3,0.8,0.5c0.1,0.1,0.2,0.1,0.3,0.1c0.3,0.1,0.5,0.1,0.7,0
		s0.2-0.4,0-0.7c-0.3-0.7-0.7-1.6-1.4-2.8c0.4-0.1,0.9-0.2,1.5-0.4c0.6-0.2,1-0.3,1.2-0.4c0.8,1.4,1.3,2.7,1.7,3.7
		c0.5,1.4,0.2,2.5-0.9,3.4c-1.2,0.9-2.7,0.9-4.5,0.1c0,0.1-0.1,0.2-0.2,0.3c-0.2,1-0.6,2.3-1.1,4c-1-0.3-2.1-0.6-3.3-0.8
		c0.8-1.9,1.3-3.7,1.5-5.4c-1.9-1.5-3.8-3.5-5.9-6.1l-5.2,3.7l1.2,1.6l4.5-3.3c0.9,1.2,2,2.8,3.3,4.9c1.3,1.9,1.2,3.4-0.4,4.5
		c-0.5,0.4-1.1,0.9-1.9,1.5c-0.3-0.3-0.9-1-1.9-1.8c0.8,1.4,1.5,3.2,2,5.5c-0.3,0-0.8,0-1.5,0c-0.9,0-1.6,0.1-2.1,0.1
		c-0.4-2.5-1.6-5-3.5-7.5l-4.3-6l7.8-5.7c-0.7-0.9-1.3-1.8-1.9-2.7l2.7-2c0.6,0.8,1.2,1.7,1.9,2.7l1.7-1.3
		C264.2,196.6,263.3,196.5,262.4,196.2z M260.1,210.2c0.1,0.2,0.3,0.5,0.5,0.9c0.6,0.8,1,1.4,1.2,1.9c0.5-0.3,0.9-0.6,1.2-0.9
		c0.6-0.4,0.7-0.8,0.3-1.4c-0.2-0.2-0.4-0.6-0.6-1c-0.3-0.4-0.5-0.7-0.7-0.9L260.1,210.2z"/>
	<path class="st3" d="M287.5,179l6.6,9.1c0.7-0.3,1.4-0.5,2.1-0.8c0.6,1.2,1.1,2.3,1.5,3.3c0.6,1.7,0.1,3.1-1.6,4.3l-3.9,2.8
		c-2,1.5-3.6,1.2-5-0.7l-0.8-1l-3,2.2l0.9,1.3l-2.9,2.1l-8.5-11.8l5.9-4.2l-1.4-1.9l2.9-2.1l1.4,1.9L287.5,179z M277.6,190.1
		l1.1,1.5l3-2.2l-1.1-1.5L277.6,190.1z M280.5,194.1l1.1,1.5l3-2.2l-1.1-1.5L280.5,194.1z M286.5,183.8l-3,2.2l1.1,1.5l3-2.2
		L286.5,183.8z M290.4,189.2l-1.1-1.5l-3,2.2l1.1,1.5L290.4,189.2z M294,191c0,0-0.1-0.1-0.1-0.3l-0.1-0.1l-4.5,3.3l0.3,0.4
		c0.5,0.8,1.2,0.9,1.9,0.3l2.1-1.5C294.3,192.6,294.4,192,294,191z"/>
</g>
<path class="st3" d="M46.8,177.9L61.9,189l-1.8,2.6l-6.1-4.5l-4.1,5.6l6.9,5.1l-2,2.7l-6.9-5.1l-3.7,5l-2.9-2.2l3.7-5l-6.9-5.1
	l2-2.7l6.9,5.1l4.1-5.6l-6.1-4.5L46.8,177.9z M46.6,182.4c0.3,2.3,0.7,4.1,0.8,5.5l-3.5,0.2c-0.1-2-0.2-3.8-0.5-5.5L46.6,182.4z
	 M57.4,190.4l1,3.1c-1.7,0.4-3.7,0.8-5.6,1.1l-0.7-3.3C54.2,191.1,55.9,190.7,57.4,190.4z"/>
<path class="st3" d="M64.7,198.2l2.7-4.2l6.6,4.3c0.1-0.3,0.2-0.9,0.4-1.5c0-0.2,0.1-0.4,0.1-0.4l3.6,2.2c-0.1,0.3-0.3,1-0.7,2.1
	l6.3,4l-2.8,4.2l-3-2l1.1-1.6l-7.3-4.8l2.8,2.9c-0.8,0.5-1.4,0.9-2.2,1.2l8.7,5.6l-1.7,2.7l-2.7-1.7c-1.5,1.1-3,1.7-4.5,2.2
	c1.2,1.4,2.3,2.9,3.5,4.6l-3.1,1.7c-1.5-2.3-2.9-4.3-4.3-6.2c-2.6-0.3-6-1.3-10.1-3c0.3-1.4,0.4-2.6,0.5-3.5
	c3.4,1.5,5.6,2.5,6.8,2.7c-1.1-1.5-2.2-3-3.3-4.3c1.1-0.4,2.2-0.9,3.3-1.3l-3.6-2.4l1.7-2.7l5.3,3.5c1-0.5,2-1.1,2.9-1.7l-2.9-1.8
	l-1.1,1.6L64.7,198.2z M66.9,206.9c0.8,0.9,1.6,2.1,2.7,3.4c1.3-0.1,2.5-0.4,3.6-1.2l-4.2-2.8C68.2,206.4,67.5,206.8,66.9,206.9z"/>
<ellipse class="st6" cx="165.8" cy="87.9" rx="76.7" ry="76.7"/>
</svg>
